<svg version="1.1" viewBox="0.0 0.0 600.0 371.0" fill="none" stroke="none" stroke-linecap="square" stroke-miterlimit="10" width="600" height="371" xmlns:xlink="http://www.w3.org/1999/xlink" xmlns="http://www.w3.org/2000/svg"><path fill="#ffffff" d="M0 0L600.0 0L600.0 371.0L0 371.0L0 0Z" fill-rule="nonzero"/><path stroke="#333333" stroke-width="1.0" stroke-linecap="butt" d="M52.5 300.5L581.5 300.5" fill-rule="nonzero"/><path stroke="#cccccc" stroke-width="1.0" stroke-linecap="butt" d="M52.5 220.5L581.5 220.5" fill-rule="nonzero"/><path stroke="#cccccc" stroke-width="1.0" stroke-linecap="butt" d="M52.5 141.5L581.5 141.5" fill-rule="nonzero"/><path stroke="#cccccc" stroke-width="1.0" stroke-linecap="butt" d="M52.5 61.5L581.5 61.5" fill-rule="nonzero"/><clipPath id="id_0"><path d="M52.55 61.916668L581.45 61.916668L581.45 300.45L52.55 300.45L52.55 61.916668Z" clip-rule="nonzero"/></clipPath><path stroke="#000000" stroke-width="2.0" stroke-linecap="butt" stroke-opacity="0.0" clip-path="url(#id_0)" d="M211.0 300.0L108.0 300.0L108.0 85.0C108.0 83.89543 108.89543 83.0 110.0 83.0L209.0 83.0C210.10457 83.0 211.0 83.89543 211.0 85.0Z" fill-rule="nonzero"/><path fill="#4285f4" clip-path="url(#id_0)" d="M211.0 300.0L108.0 300.0L108.0 85.0C108.0 83.89543 108.89543 83.0 110.0 83.0L209.0 83.0C210.10457 83.0 211.0 83.89543 211.0 85.0Z" fill-rule="nonzero"/><path stroke="#000000" stroke-width="2.0" stroke-linecap="butt" stroke-opacity="0.0" clip-path="url(#id_0)" d="M369.0 300.0L266.0 300.0L266.0 245.0C266.0 243.89543 266.89542 243.0 268.0 243.0L367.0 243.0C368.10458 243.0 369.0 243.89543 369.0 245.0Z" fill-rule="nonzero"/><path fill="#4285f4" clip-path="url(#id_0)" d="M369.0 300.0L266.0 300.0L266.0 245.0C266.0 243.89543 266.89542 243.0 268.0 243.0L367.0 243.0C368.10458 243.0 369.0 243.89543 369.0 245.0Z" fill-rule="nonzero"/><path stroke="#000000" stroke-width="2.0" stroke-linecap="butt" stroke-opacity="0.0" clip-path="url(#id_0)" d="M527.0 300.0L424.0 300.0L424.0 285.0C424.0 283.89542 424.89542 283.0 426.0 283.0L525.0 283.0C526.10455 283.0 527.0 283.89542 527.0 285.0Z" fill-rule="nonzero"/><path fill="#4285f4" clip-path="url(#id_0)" d="M527.0 300.0L424.0 300.0L424.0 285.0C424.0 283.89542 424.89542 283.0 426.0 283.0L525.0 283.0C526.10455 283.0 527.0 283.89542 527.0 285.0Z" fill-rule="nonzero"/><path fill="#000000" d="M299.375 349.45L296.04688 340.85626L297.28125 340.85626L299.51562 347.10626Q299.78125 347.85626 299.96875 348.5125Q300.17188 347.8094 300.4375 347.10626L302.75 340.85626L303.90625 340.85626L300.54688 349.45L299.375 349.45ZM308.04688 347.45L309.14062 347.575Q308.89062 348.52814 308.1875 349.0594Q307.48438 349.59064 306.40625 349.59064Q305.04688 349.59064 304.23438 348.7469Q303.4375 347.90314 303.4375 346.3875Q303.4375 344.825 304.25 343.96564Q305.0625 343.09064 306.34375 343.09064Q307.59375 343.09064 308.375 343.9344Q309.17188 344.77814 309.17188 346.325Q309.17188 346.41876 309.17188 346.60626L304.53125 346.60626Q304.59375 347.6375 305.10938 348.1844Q305.625 348.71564 306.40625 348.71564Q306.98438 348.71564 307.39062 348.41876Q307.8125 348.10626 308.04688 347.45ZM304.59375 345.7469L308.0625 345.7469Q308.0 344.95 307.67188 344.5594Q307.15625 343.95 306.35938 343.95Q305.625 343.95 305.125 344.4344Q304.64062 344.91876 304.59375 345.7469ZM310.78125 349.45L310.78125 343.23126L311.73438 343.23126L311.73438 344.16876Q312.09375 343.5125 312.39062 343.3094Q312.70312 343.09064 313.07812 343.09064Q313.60938 343.09064 314.15625 343.41876L313.79688 344.40314Q313.40625 344.16876 313.03125 344.16876Q312.67188 344.16876 312.39062 344.3875Q312.125 344.59064 312.01562 344.96564Q311.82812 345.52814 311.82812 346.1844L311.82812 349.45L310.78125 349.45ZM314.375 347.59064L315.40625 347.4344Q315.5 348.0594 315.89062 348.3875Q316.29688 348.71564 317.03125 348.71564Q317.75 348.71564 318.09375 348.4344Q318.45312 348.1375 318.45312 347.73126Q318.45312 347.3719 318.14062 347.16876Q317.92188 347.02814 317.0625 346.8094Q315.90625 346.5125 315.45312 346.3094Q315.01562 346.09064 314.78125 345.71564Q314.54688 345.34064 314.54688 344.8719Q314.54688 344.46564 314.73438 344.10626Q314.92188 343.7469 315.25 343.5125Q315.5 343.34064 315.92188 343.21564Q316.34375 343.09064 316.84375 343.09064Q317.5625 343.09064 318.10938 343.3094Q318.67188 343.5125 318.9375 343.8719Q319.20312 344.23126 319.29688 344.825L318.26562 344.96564Q318.20312 344.4969 317.85938 344.23126Q317.53125 343.95 316.90625 343.95Q316.1875 343.95 315.875 344.2Q315.5625 344.4344 315.5625 344.7625Q315.5625 344.96564 315.6875 345.1219Q315.82812 345.29376 316.09375 345.40314Q316.25 345.46564 317.03125 345.66876Q318.15625 345.98126 318.59375 346.16876Q319.03125 346.35626 319.28125 346.71564Q319.53125 347.075 319.53125 347.6219Q319.53125 348.15314 319.21875 348.6219Q318.92188 349.075 318.34375 349.34064Q317.76562 349.59064 317.03125 349.59064Q315.8125 349.59064 315.17188 349.09064Q314.54688 348.575 314.375 347.59064ZM321.79688 342.075L321.79688 340.85626L322.85938 340.85626L322.85938 342.075L321.79688 342.075ZM321.79688 349.45L321.79688 343.23126L322.85938 343.23126L322.85938 349.45L321.79688 349.45ZM324.40625 346.34064Q324.40625 344.60626 325.35938 343.77814Q326.15625 343.09064 327.3125 343.09064Q328.59375 343.09064 329.40625 343.9344Q330.23438 344.7625 330.23438 346.2469Q330.23438 347.45 329.875 348.1375Q329.51562 348.825 328.8125 349.21564Q328.125 349.59064 327.3125 349.59064Q326.01562 349.59064 325.20312 348.7625Q324.40625 347.91876 324.40625 346.34064ZM325.48438 346.34064Q325.48438 347.52814 326.0 348.1219Q326.53125 348.71564 327.3125 348.71564Q328.10938 348.71564 328.625 348.1219Q329.14062 347.52814 329.14062 346.3094Q329.14062 345.15314 328.60938 344.5594Q328.09375 343.96564 327.3125 343.96564Q326.53125 343.96564 326.0 344.5594Q325.48438 345.1375 325.48438 346.34064ZM326.73438 342.45L327.51562 340.8094L328.90625 340.8094L327.60938 342.45L326.73438 342.45ZM331.79688 349.45L331.79688 343.23126L332.73438 343.23126L332.73438 344.10626Q333.42188 343.09064 334.71875 343.09064Q335.28125 343.09064 335.75 343.29376Q336.23438 343.4969 336.46875 343.825Q336.70312 344.15314 336.79688 344.59064Q336.84375 344.8875 336.84375 345.6219L336.84375 349.45L335.79688 349.45L335.79688 345.66876Q335.79688 345.0125 335.67188 344.7Q335.54688 344.3875 335.23438 344.2Q334.92188 343.9969 334.5 343.9969Q333.82812 343.9969 333.32812 344.4344Q332.84375 344.85626 332.84375 346.04376L332.84375 349.45L331.79688 349.45Z" fill-rule="nonzero"/><path fill="#000000" d="M40.05 300.21564Q40.05 298.6844 40.3625 297.7625Q40.675 296.825 41.284374 296.325Q41.909374 295.825 42.846874 295.825Q43.534374 295.825 44.05 296.10626Q44.58125 296.3875 44.925 296.91876Q45.26875 297.4344 45.45625 298.1844Q45.64375 298.9344 45.64375 300.21564Q45.64375 301.73126 45.33125 302.65314Q45.034374 303.575 44.409374 304.09064Q43.8 304.59064 42.846874 304.59064Q41.6125 304.59064 40.89375 303.7Q40.05 302.6375 40.05 300.21564ZM41.128124 300.21564Q41.128124 302.325 41.628124 303.02814Q42.128124 303.73126 42.846874 303.73126Q43.58125 303.73126 44.065624 303.02814Q44.565624 302.325 44.565624 300.21564Q44.565624 298.09064 44.065624 297.40314Q43.58125 296.7 42.83125 296.7Q42.1125 296.7 41.675 297.3094Q41.128124 298.09064 41.128124 300.21564Z" fill-rule="nonzero"/><path fill="#000000" d="M23.01875 224.93889L21.971874 224.93889L21.971874 218.22014Q21.58125 218.57951 20.95625 218.95451Q20.346874 219.31389 19.8625 219.48576L19.8625 218.47014Q20.7375 218.04826 21.39375 217.47014Q22.065624 216.87639 22.346874 216.31389L23.01875 216.31389L23.01875 224.93889ZM26.05 220.70451Q26.05 219.17326 26.3625 218.25139Q26.675 217.31389 27.284374 216.81389Q27.909374 216.31389 28.846874 216.31389Q29.534374 216.31389 30.05 216.59514Q30.58125 216.87639 30.925 217.40764Q31.26875 217.92326 31.45625 218.67326Q31.64375 219.42326 31.64375 220.70451Q31.64375 222.22014 31.33125 223.14201Q31.034374 224.06389 30.409374 224.57951Q29.8 225.07951 28.846874 225.07951Q27.6125 225.07951 26.89375 224.18889Q26.05 223.12639 26.05 220.70451ZM27.128124 220.70451Q27.128124 222.81389 27.628124 223.51701Q28.128124 224.22014 28.846874 224.22014Q29.58125 224.22014 30.065624 223.51701Q30.565624 222.81389 30.565624 220.70451Q30.565624 218.57951 30.065624 217.89201Q29.58125 217.18889 28.83125 217.18889Q28.1125 217.18889 27.675 217.79826Q27.128124 218.57951 27.128124 220.70451ZM33.05 220.70451Q33.05 219.17326 33.3625 218.25139Q33.675 217.31389 34.284374 216.81389Q34.909374 216.31389 35.846874 216.31389Q36.534374 216.31389 37.05 216.59514Q37.58125 216.87639 37.925 217.40764Q38.26875 217.92326 38.45625 218.67326Q38.64375 219.42326 38.64375 220.70451Q38.64375 222.22014 38.33125 223.14201Q38.034374 224.06389 37.409374 224.57951Q36.8 225.07951 35.846874 225.07951Q34.6125 225.07951 33.89375 224.18889Q33.05 223.12639 33.05 220.70451ZM34.128124 220.70451Q34.128124 222.81389 34.628124 223.51701Q35.128124 224.22014 35.846874 224.22014Q36.58125 224.22014 37.065624 223.51701Q37.565624 222.81389 37.565624 220.70451Q37.565624 218.57951 37.065624 217.89201Q36.58125 217.18889 35.83125 217.18889Q35.1125 217.18889 34.675 217.79826Q34.128124 218.57951 34.128124 220.70451ZM40.05 220.70451Q40.05 219.17326 40.3625 218.25139Q40.675 217.31389 41.284374 216.81389Q41.909374 216.31389 42.846874 216.31389Q43.534374 216.31389 44.05 216.59514Q44.58125 216.87639 44.925 217.40764Q45.26875 217.92326 45.45625 218.67326Q45.64375 219.42326 45.64375 220.70451Q45.64375 222.22014 45.33125 223.14201Q45.034374 224.06389 44.409374 224.57951Q43.8 225.07951 42.846874 225.07951Q41.6125 225.07951 40.89375 224.18889Q40.05 223.12639 40.05 220.70451ZM41.128124 220.70451Q41.128124 222.81389 41.628124 223.51701Q42.128124 224.22014 42.846874 224.22014Q43.58125 224.22014 44.065624 223.51701Q44.565624 222.81389 44.565624 220.70451Q44.565624 218.57951 44.065624 217.89201Q43.58125 217.18889 42.83125 217.18889Q42.1125 217.18889 41.675 217.79826Q41.128124 218.57951 41.128124 220.70451Z" fill-rule="nonzero"/><path fill="#000000" d="M24.596874 144.41216L24.596874 145.42778L18.909374 145.42778Q18.909374 145.05278 19.034374 144.6934Q19.253124 144.11528 19.721874 143.55278Q20.20625 142.99028 21.1125 142.2559Q22.51875 141.09966 23.003124 140.42778Q23.503124 139.7559 23.503124 139.16216Q23.503124 138.53716 23.05 138.11528Q22.596874 137.67778 21.878124 137.67778Q21.1125 137.67778 20.659374 138.1309Q20.20625 138.58403 20.190624 139.39653L19.1125 139.28716Q19.221874 138.0684 19.940624 137.4434Q20.675 136.80278 21.909374 136.80278Q23.14375 136.80278 23.8625 137.49028Q24.58125 138.17778 24.58125 139.1934Q24.58125 139.70903 24.3625 140.20903Q24.159374 140.6934 23.659374 141.2559Q23.175 141.80278 22.05 142.7559Q21.096874 143.55278 20.815624 143.84966Q20.55 144.1309 20.378124 144.41216L24.596874 144.41216ZM26.05 141.1934Q26.05 139.66216 26.3625 138.74028Q26.675 137.80278 27.284374 137.30278Q27.909374 136.80278 28.846874 136.80278Q29.534374 136.80278 30.05 137.08403Q30.58125 137.36528 30.925 137.89653Q31.26875 138.41216 31.45625 139.16216Q31.64375 139.91216 31.64375 141.1934Q31.64375 142.70903 31.33125 143.6309Q31.034374 144.55278 30.409374 145.0684Q29.8 145.5684 28.846874 145.5684Q27.6125 145.5684 26.89375 144.67778Q26.05 143.61528 26.05 141.1934ZM27.128124 141.1934Q27.128124 143.30278 27.628124 144.0059Q28.128124 144.70903 28.846874 144.70903Q29.58125 144.70903 30.065624 144.0059Q30.565624 143.30278 30.565624 141.1934Q30.565624 139.0684 30.065624 138.3809Q29.58125 137.67778 28.83125 137.67778Q28.1125 137.67778 27.675 138.28716Q27.128124 139.0684 27.128124 141.1934ZM33.05 141.1934Q33.05 139.66216 33.3625 138.74028Q33.675 137.80278 34.284374 137.30278Q34.909374 136.80278 35.846874 136.80278Q36.534374 136.80278 37.05 137.08403Q37.58125 137.36528 37.925 137.89653Q38.26875 138.41216 38.45625 139.16216Q38.64375 139.91216 38.64375 141.1934Q38.64375 142.70903 38.33125 143.6309Q38.034374 144.55278 37.409374 145.0684Q36.8 145.5684 35.846874 145.5684Q34.6125 145.5684 33.89375 144.67778Q33.05 143.61528 33.05 141.1934ZM34.128124 141.1934Q34.128124 143.30278 34.628124 144.0059Q35.128124 144.70903 35.846874 144.70903Q36.58125 144.70903 37.065624 144.0059Q37.565624 143.30278 37.565624 141.1934Q37.565624 139.0684 37.065624 138.3809Q36.58125 137.67778 35.83125 137.67778Q35.1125 137.67778 34.675 138.28716Q34.128124 139.0684 34.128124 141.1934ZM40.05 141.1934Q40.05 139.66216 40.3625 138.74028Q40.675 137.80278 41.284374 137.30278Q41.909374 136.80278 42.846874 136.80278Q43.534374 136.80278 44.05 137.08403Q44.58125 137.36528 44.925 137.89653Q45.26875 138.41216 45.45625 139.16216Q45.64375 139.91216 45.64375 141.1934Q45.64375 142.70903 45.33125 143.6309Q45.034374 144.55278 44.409374 145.0684Q43.8 145.5684 42.846874 145.5684Q41.6125 145.5684 40.89375 144.67778Q40.05 143.61528 40.05 141.1934ZM41.128124 141.1934Q41.128124 143.30278 41.628124 144.0059Q42.128124 144.70903 42.846874 144.70903Q43.58125 144.70903 44.065624 144.0059Q44.565624 143.30278 44.565624 141.1934Q44.565624 139.0684 44.065624 138.3809Q43.58125 137.67778 42.83125 137.67778Q42.1125 137.67778 41.675 138.28716Q41.128124 139.0684 41.128124 141.1934Z" fill-rule="nonzero"/><path fill="#000000" d="M19.05 63.65104L20.1125 63.510414Q20.284374 64.40104 20.721874 64.80729Q21.159374 65.197914 21.784374 65.197914Q22.534374 65.197914 23.05 64.68229Q23.565624 64.166664 23.565624 63.40104Q23.565624 62.68229 23.08125 62.21354Q22.6125 61.729164 21.878124 61.729164Q21.58125 61.729164 21.128124 61.854164L21.253124 60.916664Q21.3625 60.93229 21.425 60.93229Q22.096874 60.93229 22.628124 60.58854Q23.175 60.229164 23.175 59.49479Q23.175 58.916664 22.784374 58.541664Q22.39375 58.15104 21.76875 58.15104Q21.159374 58.15104 20.7375 58.541664Q20.33125 58.93229 20.221874 59.697914L19.159374 59.510414Q19.346874 58.46354 20.034374 57.885414Q20.721874 57.291664 21.7375 57.291664Q22.440624 57.291664 23.034374 57.604164Q23.628124 57.90104 23.940624 58.416664Q24.253124 58.93229 24.253124 59.52604Q24.253124 60.072914 23.95625 60.541664Q23.659374 60.99479 23.08125 61.260414Q23.83125 61.43229 24.253124 61.99479Q24.675 62.541664 24.675 63.385414Q24.675 64.510414 23.846874 65.291664Q23.034374 66.072914 21.784374 66.072914Q20.659374 66.072914 19.909374 65.40104Q19.159374 64.71354 19.05 63.65104ZM26.05 61.68229Q26.05 60.15104 26.3625 59.229164Q26.675 58.291664 27.284374 57.791664Q27.909374 57.291664 28.846874 57.291664Q29.534374 57.291664 30.05 57.572914Q30.58125 57.854164 30.925 58.385414Q31.26875 58.90104 31.45625 59.65104Q31.64375 60.40104 31.64375 61.68229Q31.64375 63.197914 31.33125 64.11979Q31.034374 65.041664 30.409374 65.55729Q29.8 66.05729 28.846874 66.05729Q27.6125 66.05729 26.89375 65.166664Q26.05 64.104164 26.05 61.68229ZM27.128124 61.68229Q27.128124 63.791664 27.628124 64.49479Q28.128124 65.197914 28.846874 65.197914Q29.58125 65.197914 30.065624 64.49479Q30.565624 63.791664 30.565624 61.68229Q30.565624 59.55729 30.065624 58.86979Q29.58125 58.166664 28.83125 58.166664Q28.1125 58.166664 27.675 58.77604Q27.128124 59.55729 27.128124 61.68229ZM33.05 61.68229Q33.05 60.15104 33.3625 59.229164Q33.675 58.291664 34.284374 57.791664Q34.909374 57.291664 35.846874 57.291664Q36.534374 57.291664 37.05 57.572914Q37.58125 57.854164 37.925 58.385414Q38.26875 58.90104 38.45625 59.65104Q38.64375 60.40104 38.64375 61.68229Q38.64375 63.197914 38.33125 64.11979Q38.034374 65.041664 37.409374 65.55729Q36.8 66.05729 35.846874 66.05729Q34.6125 66.05729 33.89375 65.166664Q33.05 64.104164 33.05 61.68229ZM34.128124 61.68229Q34.128124 63.791664 34.628124 64.49479Q35.128124 65.197914 35.846874 65.197914Q36.58125 65.197914 37.065624 64.49479Q37.565624 63.791664 37.565624 61.68229Q37.565624 59.55729 37.065624 58.86979Q36.58125 58.166664 35.83125 58.166664Q35.1125 58.166664 34.675 58.77604Q34.128124 59.55729 34.128124 61.68229ZM40.05 61.68229Q40.05 60.15104 40.3625 59.229164Q40.675 58.291664 41.284374 57.791664Q41.909374 57.291664 42.846874 57.291664Q43.534374 57.291664 44.05 57.572914Q44.58125 57.854164 44.925 58.385414Q45.26875 58.90104 45.45625 59.65104Q45.64375 60.40104 45.64375 61.68229Q45.64375 63.197914 45.33125 64.11979Q45.034374 65.041664 44.409374 65.55729Q43.8 66.05729 42.846874 66.05729Q41.6125 66.05729 40.89375 65.166664Q40.05 64.104164 40.05 61.68229ZM41.128124 61.68229Q41.128124 63.791664 41.628124 64.49479Q42.128124 65.197914 42.846874 65.197914Q43.58125 65.197914 44.065624 64.49479Q44.565624 63.791664 44.565624 61.68229Q44.565624 59.55729 44.065624 58.86979Q43.58125 58.166664 42.83125 58.166664Q42.1125 58.166664 41.675 58.77604Q41.128124 59.55729 41.128124 61.68229Z" fill-rule="nonzero"/><path fill="#000000" d="M143.66628 314.6844L144.72878 314.59064Q144.8069 315.2469 145.08815 315.65314Q145.3694 316.0594 145.94753 316.325Q146.54128 316.575 147.27565 316.575Q147.91628 316.575 148.41628 316.3875Q148.91628 316.1844 149.15065 315.85626Q149.40065 315.5125 149.40065 315.1219Q149.40065 314.71564 149.16628 314.41876Q148.9319 314.10626 148.40065 313.90314Q148.04128 313.7625 146.85378 313.48126Q145.6819 313.2 145.21315 312.95Q144.58815 312.6219 144.29128 312.15314Q143.9944 311.66876 143.9944 311.075Q143.9944 310.4344 144.35378 309.8719Q144.72878 309.29376 145.4319 309.0125Q146.15065 308.71564 147.01003 308.71564Q147.96315 308.71564 148.69753 309.02814Q149.4319 309.325 149.82253 309.9344Q150.21315 310.52814 150.2444 311.27814L149.15065 311.35626Q149.0569 310.54376 148.54128 310.1375Q148.04128 309.71564 147.0569 309.71564Q146.02565 309.71564 145.5569 310.09064Q145.08815 310.46564 145.08815 310.9969Q145.08815 311.46564 145.41628 311.7625Q145.7444 312.0594 147.1194 312.3719Q148.51003 312.6844 149.02565 312.91876Q149.77565 313.27814 150.13503 313.8094Q150.4944 314.325 150.4944 315.02814Q150.4944 315.71564 150.10378 316.325Q149.71315 316.91876 148.97878 317.2625Q148.2444 317.59064 147.32253 317.59064Q146.15065 317.59064 145.35378 317.2625Q144.57253 316.91876 144.1194 316.23126Q143.6819 315.54376 143.66628 314.6844ZM156.16628 315.45L157.26003 315.575Q157.01003 316.52814 156.3069 317.0594Q155.60378 317.59064 154.52565 317.59064Q153.16628 317.59064 152.35378 316.7469Q151.5569 315.90314 151.5569 314.3875Q151.5569 312.825 152.3694 311.96564Q153.1819 311.09064 154.46315 311.09064Q155.71315 311.09064 156.4944 311.9344Q157.29128 312.77814 157.29128 314.325Q157.29128 314.41876 157.29128 314.60626L152.65065 314.60626Q152.71315 315.6375 153.22878 316.1844Q153.7444 316.71564 154.52565 316.71564Q155.10378 316.71564 155.51003 316.41876Q155.9319 316.10626 156.16628 315.45ZM152.71315 313.7469L156.1819 313.7469Q156.1194 312.95 155.79128 312.5594Q155.27565 311.95 154.47878 311.95Q153.7444 311.95 153.2444 312.4344Q152.76003 312.91876 152.71315 313.7469ZM158.90065 317.45L158.90065 311.23126L159.85378 311.23126L159.85378 312.16876Q160.21315 311.5125 160.51003 311.3094Q160.82253 311.09064 161.19753 311.09064Q161.72878 311.09064 162.27565 311.41876L161.91628 312.40314Q161.52565 312.16876 161.15065 312.16876Q160.79128 312.16876 160.51003 312.3875Q160.2444 312.59064 160.13503 312.96564Q159.94753 313.52814 159.94753 314.1844L159.94753 317.45L158.90065 317.45ZM162.91628 310.075L162.91628 308.85626L163.97878 308.85626L163.97878 310.075L162.91628 310.075ZM162.91628 317.45L162.91628 311.23126L163.97878 311.23126L163.97878 317.45L162.91628 317.45ZM169.97878 316.6844Q169.38503 317.1844 168.83815 317.3875Q168.3069 317.59064 167.6819 317.59064Q166.65065 317.59064 166.10378 317.09064Q165.5569 316.59064 165.5569 315.8094Q165.5569 315.35626 165.76003 314.98126Q165.96315 314.59064 166.3069 314.3719Q166.65065 314.1375 167.07253 314.02814Q167.3694 313.9344 168.01003 313.85626Q169.27565 313.71564 169.88503 313.4969Q169.88503 313.27814 169.88503 313.23126Q169.88503 312.575 169.58815 312.3094Q169.1819 311.96564 168.38503 311.96564Q167.65065 311.96564 167.29128 312.23126Q166.9319 312.48126 166.76003 313.1375L165.72878 312.9969Q165.8694 312.34064 166.19753 311.9344Q166.52565 311.52814 167.13503 311.3094Q167.7444 311.09064 168.54128 311.09064Q169.33815 311.09064 169.83815 311.27814Q170.33815 311.46564 170.57253 311.7469Q170.8069 312.02814 170.90065 312.46564Q170.94753 312.73126 170.94753 313.4344L170.94753 314.84064Q170.94753 316.3094 171.01003 316.7Q171.08815 317.09064 171.29128 317.45L170.1819 317.45Q170.02565 317.1219 169.97878 316.6844ZM169.88503 314.325Q169.3069 314.5594 168.16628 314.73126Q167.51003 314.825 167.2444 314.95Q166.97878 315.0594 166.82253 315.27814Q166.6819 315.4969 166.6819 315.77814Q166.6819 316.2 166.9944 316.48126Q167.32253 316.7625 167.9319 316.7625Q168.54128 316.7625 169.01003 316.4969Q169.4944 316.23126 169.71315 315.7625Q169.88503 315.40314 169.88503 314.71564L169.88503 314.325ZM172.88503 317.45L172.88503 308.85626L173.94753 308.85626L173.94753 317.45L172.88503 317.45Z" fill-rule="nonzero"/><path fill="#000000" d="M304.57812 313.2625Q304.57812 311.1219 305.71875 309.91876Q306.875 308.7 308.6875 308.7Q309.89062 308.7 310.84375 309.27814Q311.79688 309.84064 312.29688 310.85626Q312.79688 311.8719 312.79688 313.16876Q312.79688 314.46564 312.26562 315.4969Q311.73438 316.52814 310.76562 317.0594Q309.8125 317.59064 308.6875 317.59064Q307.46875 317.59064 306.51562 317.0125Q305.5625 316.41876 305.0625 315.41876Q304.57812 314.40314 304.57812 313.2625ZM305.75 313.27814Q305.75 314.84064 306.57812 315.73126Q307.42188 316.6219 308.6875 316.6219Q309.96875 316.6219 310.79688 315.73126Q311.625 314.825 311.625 313.15314Q311.625 312.10626 311.26562 311.325Q310.92188 310.54376 310.23438 310.1219Q309.54688 309.6844 308.70312 309.6844Q307.5 309.6844 306.625 310.5125Q305.75 311.34064 305.75 313.27814ZM313.89062 317.45L313.89062 308.85626L315.60938 308.85626L317.64062 314.9344Q317.92188 315.79376 318.04688 316.21564Q318.1875 315.7469 318.5 314.84064L320.5625 308.85626L322.09375 308.85626L322.09375 317.45L321.0 317.45L321.0 310.2625L318.5 317.45L317.46875 317.45L314.98438 310.1375L314.98438 317.45L313.89062 317.45ZM322.92188 317.45L322.92188 308.85626L326.17188 308.85626Q327.01562 308.85626 327.46875 308.9344Q328.10938 309.04376 328.53125 309.34064Q328.96875 309.6375 329.21875 310.16876Q329.48438 310.7 329.48438 311.34064Q329.48438 312.4344 328.78125 313.2Q328.09375 313.95 326.26562 313.95L324.0625 313.95L324.0625 317.45L322.92188 317.45ZM324.0625 312.95L326.28125 312.95Q327.39062 312.95 327.84375 312.54376Q328.3125 312.1219 328.3125 311.3719Q328.3125 310.84064 328.03125 310.46564Q327.76562 310.075 327.32812 309.95Q327.03125 309.8719 326.26562 309.8719L324.0625 309.8719L324.0625 312.95Z" fill-rule="nonzero"/><path fill="#000000" d="M450.4587 313.2625Q450.4587 311.1219 451.59933 309.91876Q452.75558 308.7 454.56808 308.7Q455.7712 308.7 456.72433 309.27814Q457.67746 309.84064 458.17746 310.85626Q458.67746 311.8719 458.67746 313.16876Q458.67746 314.46564 458.1462 315.4969Q457.61496 316.52814 456.6462 317.0594Q455.69308 317.59064 454.56808 317.59064Q453.34933 317.59064 452.3962 317.0125Q451.44308 316.41876 450.94308 315.41876Q450.4587 314.40314 450.4587 313.2625ZM451.63058 313.27814Q451.63058 314.84064 452.4587 315.73126Q453.30246 316.6219 454.56808 316.6219Q455.84933 316.6219 456.67746 315.73126Q457.50558 314.825 457.50558 313.15314Q457.50558 312.10626 457.1462 311.325Q456.80246 310.54376 456.11496 310.1219Q455.42746 309.6844 454.5837 309.6844Q453.38058 309.6844 452.50558 310.5125Q451.63058 311.34064 451.63058 313.27814ZM459.7712 317.45L459.7712 308.85626L461.48996 308.85626L463.5212 314.9344Q463.80246 315.79376 463.92746 316.21564Q464.06808 315.7469 464.38058 314.84064L466.44308 308.85626L467.97433 308.85626L467.97433 317.45L466.88058 317.45L466.88058 310.2625L464.38058 317.45L463.34933 317.45L460.86496 310.1375L460.86496 317.45L459.7712 317.45ZM468.80246 317.45L468.80246 308.85626L472.05246 308.85626Q472.8962 308.85626 473.34933 308.9344Q473.98996 309.04376 474.41183 309.34064Q474.84933 309.6375 475.09933 310.16876Q475.36496 310.7 475.36496 311.34064Q475.36496 312.4344 474.66183 313.2Q473.97433 313.95 472.1462 313.95L469.94308 313.95L469.94308 317.45L468.80246 317.45ZM469.94308 312.95L472.16183 312.95Q473.2712 312.95 473.72433 312.54376Q474.19308 312.1219 474.19308 311.3719Q474.19308 310.84064 473.91183 310.46564Q473.6462 310.075 473.2087 309.95Q472.91183 309.8719 472.1462 309.8719L469.94308 309.8719L469.94308 312.95ZM476.25558 314.8719L476.25558 313.8094L479.50558 313.8094L479.50558 314.8719L476.25558 314.8719ZM480.7712 317.45L480.7712 308.85626L482.48996 308.85626L484.5212 314.9344Q484.80246 315.79376 484.92746 316.21564Q485.06808 315.7469 485.38058 314.84064L487.44308 308.85626L488.97433 308.85626L488.97433 317.45L487.88058 317.45L487.88058 310.2625L485.38058 317.45L484.34933 317.45L481.86496 310.1375L481.86496 317.45L480.7712 317.45ZM489.80246 317.45L489.80246 308.85626L493.05246 308.85626Q493.8962 308.85626 494.34933 308.9344Q494.98996 309.04376 495.41183 309.34064Q495.84933 309.6375 496.09933 310.16876Q496.36496 310.7 496.36496 311.34064Q496.36496 312.4344 495.66183 313.2Q494.97433 313.95 493.1462 313.95L490.94308 313.95L490.94308 317.45L489.80246 317.45ZM490.94308 312.95L493.16183 312.95Q494.2712 312.95 494.72433 312.54376Q495.19308 312.1219 495.19308 311.3719Q495.19308 310.84064 494.91183 310.46564Q494.6462 310.075 494.2087 309.95Q493.91183 309.8719 493.1462 309.8719L490.94308 309.8719L490.94308 312.95ZM498.00558 317.45L498.00558 308.85626L499.13058 308.85626L499.13058 317.45L498.00558 317.45Z" fill-rule="nonzero"/><path fill="#757575" d="M23.7375 37.55L23.7375 24.925L19.01875 24.925L19.01875 23.2375L30.3625 23.2375L30.3625 24.925L25.628124 24.925L25.628124 37.55L23.7375 37.55ZM31.878124 25.253124L31.878124 23.2375L33.64375 23.2375L33.64375 25.253124L31.878124 25.253124ZM31.878124 37.55L31.878124 27.175L33.64375 27.175L33.64375 37.55L31.878124 37.55ZM42.971874 34.20625L44.784374 34.440624Q44.3625 36.01875 43.190624 36.909374Q42.034374 37.784374 40.221874 37.784374Q37.95625 37.784374 36.6125 36.39375Q35.284374 34.9875 35.284374 32.45625Q35.284374 29.83125 36.628124 28.39375Q37.971874 26.940624 40.128124 26.940624Q42.20625 26.940624 43.51875 28.3625Q44.846874 29.76875 44.846874 32.346874Q44.846874 32.503124 44.83125 32.815624L37.096874 32.815624Q37.190624 34.51875 38.065624 35.425Q38.940624 36.33125 40.2375 36.33125Q41.20625 36.33125 41.878124 35.83125Q42.565624 35.315624 42.971874 34.20625ZM37.190624 31.3625L42.9875 31.3625Q42.878124 30.065624 42.33125 29.409374Q41.4875 28.39375 40.14375 28.39375Q38.940624 28.39375 38.1125 29.20625Q37.284374 30.003124 37.190624 31.3625ZM46.8625 37.55L46.8625 27.175L48.440624 27.175L48.440624 28.628124Q48.925 27.878124 49.7375 27.409374Q50.55 26.940624 51.58125 26.940624Q52.7375 26.940624 53.471874 27.425Q54.20625 27.89375 54.51875 28.753124Q55.753124 26.940624 57.721874 26.940624Q59.26875 26.940624 60.096874 27.8Q60.925 28.659374 60.925 30.425L60.925 37.55L59.175 37.55L59.175 31.01875Q59.175 29.95625 59.003124 29.503124Q58.83125 29.034374 58.378124 28.753124Q57.940624 28.471874 57.33125 28.471874Q56.2375 28.471874 55.503124 29.20625Q54.784374 29.925 54.784374 31.51875L54.784374 37.55L53.034374 37.55L53.034374 30.815624Q53.034374 29.64375 52.596874 29.065624Q52.175 28.471874 51.190624 28.471874Q50.45625 28.471874 49.815624 28.8625Q49.190624 29.253124 48.909374 30.003124Q48.628124 30.753124 48.628124 32.175L48.628124 37.55L46.8625 37.55ZM62.8625 41.51875L62.8625 27.175L64.47188 27.175L64.47188 28.51875Q65.03438 27.7375 65.7375 27.346874Q66.45625 26.940624 67.47188 26.940624Q68.8 26.940624 69.81563 27.628124Q70.83125 28.315624 71.34688 29.565624Q71.87813 30.8 71.87813 32.284374Q71.87813 33.878124 71.3 35.159374Q70.7375 36.425 69.64375 37.1125Q68.55 37.784374 67.34688 37.784374Q66.47188 37.784374 65.76875 37.409374Q65.08125 37.034374 64.62813 36.471874L64.62813 41.51875L62.8625 41.51875ZM64.45625 32.425Q64.45625 34.425 65.26875 35.378124Q66.08125 36.33125 67.2375 36.33125Q68.40938 36.33125 69.2375 35.346874Q70.08125 34.3625 70.08125 32.26875Q70.08125 30.3 69.25313 29.315624Q68.44063 28.315624 67.31563 28.315624Q66.19063 28.315624 65.31563 29.378124Q64.45625 30.425 64.45625 32.425ZM73.22188 32.3625Q73.22188 29.4875 74.81563 28.096874Q76.15938 26.940624 78.08125 26.940624Q80.22188 26.940624 81.56563 28.346874Q82.925 29.753124 82.925 32.221874Q82.925 34.221874 82.33125 35.378124Q81.7375 36.51875 80.58125 37.159374Q79.44063 37.784374 78.08125 37.784374Q75.89375 37.784374 74.55 36.39375Q73.22188 34.9875 73.22188 32.3625ZM75.01875 32.3625Q75.01875 34.3625 75.87813 35.346874Q76.75313 36.33125 78.08125 36.33125Q79.39375 36.33125 80.25313 35.346874Q81.12813 34.346874 81.12813 32.3Q81.12813 30.378124 80.25313 29.39375Q79.37813 28.39375 78.08125 28.39375Q76.75313 28.39375 75.87813 29.39375Q75.01875 30.378124 75.01875 32.3625ZM94.70625 35.971874L94.95625 37.534374Q94.22188 37.690624 93.62813 37.690624Q92.675 37.690624 92.14375 37.39375Q91.62813 37.08125 91.40938 36.596874Q91.19063 36.096874 91.19063 34.51875L91.19063 28.55L89.90938 28.55L89.90938 27.175L91.19063 27.175L91.19063 24.6125L92.94063 23.55L92.94063 27.175L94.70625 27.175L94.70625 28.55L92.94063 28.55L92.94063 34.6125Q92.94063 35.3625 93.03438 35.58125Q93.12813 35.784374 93.33125 35.925Q93.55 36.05 93.94063 36.05Q94.22188 36.05 94.70625 35.971874ZM96.22188 32.3625Q96.22188 29.4875 97.81563 28.096874Q99.15938 26.940624 101.08125 26.940624Q103.22188 26.940624 104.56563 28.346874Q105.925 29.753124 105.925 32.221874Q105.925 34.221874 105.33125 35.378124Q104.7375 36.51875 103.58125 37.159374Q102.44063 37.784374 101.08125 37.784374Q98.89375 37.784374 97.55 36.39375Q96.22188 34.9875 96.22188 32.3625ZM98.01875 32.3625Q98.01875 34.3625 98.87813 35.346874Q99.75313 36.33125 101.08125 36.33125Q102.39375 36.33125 103.25313 35.346874Q104.12813 34.346874 104.12813 32.3Q104.12813 30.378124 103.25313 29.39375Q102.37813 28.39375 101.08125 28.39375Q99.75313 28.39375 98.87813 29.39375Q98.01875 30.378124 98.01875 32.3625ZM111.70625 35.971874L111.95625 37.534374Q111.22188 37.690624 110.62813 37.690624Q109.675 37.690624 109.14375 37.39375Q108.62813 37.08125 108.40938 36.596874Q108.19063 36.096874 108.19063 34.51875L108.19063 28.55L106.90938 28.55L106.90938 27.175L108.19063 27.175L108.19063 24.6125L109.94063 23.55L109.94063 27.175L111.70625 27.175L111.70625 28.55L109.94063 28.55L109.94063 34.6125Q109.94063 35.3625 110.03438 35.58125Q110.12813 35.784374 110.33125 35.925Q110.55 36.05 110.94063 36.05Q111.22188 36.05 111.70625 35.971874ZM120.64375 36.26875Q119.65938 37.096874 118.75313 37.440624Q117.84688 37.784374 116.81563 37.784374Q115.1125 37.784374 114.19063 36.95625Q113.26875 36.1125 113.26875 34.815624Q113.26875 34.05 113.6125 33.425Q113.97188 32.8 114.53438 32.425Q115.09688 32.034374 115.8 31.83125Q116.31563 31.70625 117.3625 31.565624Q119.4875 31.315624 120.4875 30.971874Q120.50313 30.6125 120.50313 30.503124Q120.50313 29.440624 120.00313 28.9875Q119.33125 28.39375 118.00313 28.39375Q116.75313 28.39375 116.15938 28.83125Q115.58125 29.26875 115.3 30.378124L113.58125 30.14375Q113.81563 29.034374 114.34688 28.3625Q114.87813 27.675 115.89375 27.315624Q116.90938 26.940624 118.25313 26.940624Q119.58125 26.940624 120.40938 27.253124Q121.2375 27.565624 121.62813 28.05Q122.01875 28.51875 122.175 29.2375Q122.26875 29.690624 122.26875 30.8625L122.26875 33.20625Q122.26875 35.659374 122.37813 36.315624Q122.4875 36.95625 122.83125 37.55L120.9875 37.55Q120.72188 37.003124 120.64375 36.26875ZM120.4875 32.346874Q119.53438 32.7375 117.6125 33.003124Q116.53438 33.159374 116.08125 33.3625Q115.64375 33.55 115.39375 33.925Q115.14375 34.3 115.14375 34.76875Q115.14375 35.471874 115.675 35.940624Q116.20625 36.409374 117.2375 36.409374Q118.25313 36.409374 119.03438 35.971874Q119.83125 35.51875 120.20625 34.753124Q120.4875 34.14375 120.4875 32.9875L120.4875 32.346874ZM124.83125 37.55L124.83125 23.2375L126.58125 23.2375L126.58125 37.55L124.83125 37.55Z" fill-rule="nonzero"/></svg>